<?xml version="1.0" standalone="no"?>
<!DOCTYPE svg PUBLIC "-//W3C//DTD SVG 20010904//EN"
 "http://www.w3.org/TR/2001/REC-SVG-20010904/DTD/svg10.dtd">
<svg version="1.0" xmlns="http://www.w3.org/2000/svg"
 width="1024.000000pt" height="1024.000000pt" viewBox="0 0 1024.000000 1024.000000"
 preserveAspectRatio="xMidYMid meet">

<g transform="translate(0.000000,1024.000000) scale(0.100000,-0.100000)"
fill="#000000" stroke="none">
<path d="M8425 9803 c369 -23 700 -165 952 -410 57 -56 51 -36 -7 23 -213 216
-640 399 -919 392 -53 -1 -61 -3 -26 -5z"/>
<path d="M1505 9760 c-25 -11 1 -11 35 0 20 6 21 8 5 8 -11 0 -29 -3 -40 -8z"/>
<path d="M1014 9528 c-43 -32 -49 -38 -38 -38 10 1 82 60 72 60 -3 0 -18 -10
-34 -22z"/>
<path d="M940 9470 c-8 -5 -12 -12 -9 -15 4 -3 12 1 19 10 14 17 11 19 -10 5z"/>
<path d="M889 9423 c-13 -16 -12 -17 4 -4 16 13 21 21 13 21 -2 0 -10 -8 -17
-17z"/>
<path d="M9460 9306 c0 -2 8 -10 18 -17 15 -13 16 -12 3 4 -13 16 -21 21 -21
13z"/>
<path d="M9505 9250 c10 -11 20 -20 22 -20 2 0 -2 9 -9 20 -7 11 -17 20 -22
20 -5 0 -1 -9 9 -20z"/>
<path d="M5049 7038 c-35 -46 -99 -128 -143 -183 -44 -55 -103 -129 -131 -165
-28 -36 -94 -119 -146 -185 -53 -66 -178 -226 -279 -355 -101 -129 -207 -264
-235 -300 -28 -36 -94 -119 -146 -185 -52 -66 -157 -199 -234 -295 l-138 -175
359 -3 359 -3 25 33 c219 282 771 968 780 968 8 0 173 -202 476 -586 43 -55
135 -171 204 -257 l125 -157 353 0 c217 0 352 4 350 9 -4 13 -382 499 -817
1051 -102 129 -259 330 -350 445 -91 116 -168 212 -171 215 -10 9 -115 144
-139 178 -12 17 -26 32 -31 32 -5 0 -37 -37 -71 -82z"/>
<path d="M9903 5780 c0 -25 2 -35 4 -22 2 12 2 32 0 45 -2 12 -4 2 -4 -23z"/>
<path d="M5049 5629 c-35 -28 -92 -71 -126 -96 -35 -25 -63 -49 -63 -54 0 -5
110 -9 260 -9 143 0 260 3 260 8 0 4 -8 12 -17 18 -10 6 -67 50 -127 98 -60
47 -112 86 -116 86 -4 0 -36 -23 -71 -51z"/>
<path d="M9903 5610 c0 -25 2 -35 4 -22 2 12 2 32 0 45 -2 12 -4 2 -4 -23z"/>
<path d="M9861 5553 c-1 -10 -2 -47 -2 -82 0 -58 -1 -62 -14 -45 -13 18 -14
16 -14 -21 1 -22 3 -32 6 -22 8 29 23 19 23 -15 0 -23 -3 -29 -9 -19 -13 20
-22 -2 -20 -51 3 -97 -12 -3422 -16 -3528 -4 -107 -33 -290 -54 -343 -5 -12
-24 -60 -42 -107 -49 -127 -85 -189 -200 -340 -174 -231 -411 -398 -700 -494
-198 -66 -204 -66 -1376 -78 -138 -2 -249 -6 -247 -10 2 -4 -6 -9 -18 -11 -15
-4 -11 -5 12 -5 148 0 177 -2 177 -17 0 -11 -14 -15 -56 -17 -31 -1 16 -5 104
-8 261 -12 1021 -11 1156 0 589 51 1091 451 1268 1010 72 228 66 38 69 2204 1
1073 0 1948 -2 1945 -2 -2 -7 -98 -9 -212 -3 -115 -8 -211 -11 -215 -3 -3 -6
108 -6 246 0 139 -4 252 -8 252 -5 0 -10 -8 -11 -17z m-4 -250 c1 -24 0 -25
-6 -8 -7 17 -6 35 2 35 2 0 3 -12 4 -27z m13 -75 c0 -19 -16 -5 -17 14 -2 18
0 20 7 8 5 -8 10 -18 10 -22z m-5 -28 c3 -5 1 -10 -4 -10 -6 0 -11 5 -11 10 0
6 2 10 4 10 3 0 8 -4 11 -10z m22 -182 c-3 -8 -6 -5 -6 6 -1 11 2 17 5 13 3
-3 4 -12 1 -19z m0 -115 c-3 -10 -5 -2 -5 17 0 19 2 27 5 18 2 -10 2 -26 0
-35z m0 -90 c-3 -10 -5 -4 -5 12 0 17 2 24 5 18 2 -7 2 -21 0 -30z m-2492
-4453 c3 -5 1 -10 -4 -10 -6 0 -11 5 -11 10 0 6 2 10 4 10 3 0 8 -4 11 -10z"/>
<path d="M9833 5495 c0 -22 2 -30 4 -17 2 12 2 30 0 40 -3 9 -5 -1 -4 -23z"/>
<path d="M4850 5425 c0 -13 37 -15 270 -15 233 0 270 2 270 15 0 13 -37 15
-270 15 -233 0 -270 -2 -270 -15z"/>
<path d="M4910 5235 l0 -145 40 0 40 0 0 145 0 145 -40 0 -40 0 0 -145z"/>
<path d="M5080 5235 l0 -145 40 0 40 0 0 145 0 145 -40 0 -40 0 0 -145z"/>
<path d="M5250 5235 l0 -145 40 0 40 0 0 145 0 145 -40 0 -40 0 0 -145z"/>
<path d="M2230 3970 l0 -680 120 0 120 0 0 680 0 680 -120 0 -120 0 0 -680z"/>
<path d="M7590 4496 l0 -133 -37 -7 c-21 -3 -59 -6 -85 -6 l-48 0 0 -90 0 -90
84 0 84 0 4 -327 c5 -380 7 -392 92 -479 74 -75 139 -97 271 -92 106 4 211 35
222 65 5 12 -39 158 -50 170 -2 1 -25 -9 -52 -22 -75 -38 -141 -31 -197 22
-43 41 -50 98 -46 393 l3 265 147 3 147 3 3 89 3 90 -150 2 -150 3 -3 138 -3
137 -119 0 -120 0 0 -134z"/>
<path d="M3345 4369 c-71 -10 -183 -63 -242 -114 l-42 -36 -3 68 -3 68 -110 0
-110 0 -3 -531 -2 -532 77 -5 c43 -3 97 -6 120 -7 l41 -1 4 328 c3 319 4 329
27 381 51 114 167 179 300 170 106 -8 175 -51 213 -134 22 -47 23 -61 26 -390
4 -382 -3 -352 77 -349 22 0 69 2 105 3 l65 2 0 363 c-1 341 -2 366 -22 424
-59 175 -169 267 -351 293 -76 11 -84 11 -167 -1z"/>
<path d="M5655 4364 c-193 -41 -343 -172 -405 -354 -28 -79 -33 -253 -11 -340
47 -186 198 -335 391 -385 99 -26 266 -23 355 5 39 12 86 30 105 40 53 27 140
101 140 119 -1 17 -114 141 -129 141 -5 0 -11 -4 -13 -8 -10 -25 -103 -81
-161 -97 -85 -23 -212 -17 -278 12 -87 39 -161 127 -183 216 l-6 27 425 0 425
0 0 78 c-1 232 -102 413 -284 502 -121 60 -231 73 -371 44z m224 -200 c91 -27
177 -127 196 -227 l7 -37 -308 2 -309 3 3 25 c8 54 46 122 94 165 88 79 202
104 317 69z"/>
<path d="M6835 4374 c-242 -36 -367 -151 -367 -339 1 -82 16 -126 61 -178 62
-70 142 -102 336 -136 193 -34 232 -55 242 -130 5 -36 2 -44 -29 -75 -19 -19
-53 -39 -75 -45 -49 -14 -160 -17 -223 -7 -59 10 -208 64 -242 88 l-27 19 -14
-33 c-7 -18 -24 -59 -37 -91 l-24 -59 24 -19 c33 -24 148 -66 235 -84 83 -17
273 -19 347 -4 68 15 158 60 207 104 76 69 111 211 76 315 -37 110 -126 161
-361 205 -222 41 -264 65 -264 149 0 55 18 79 82 106 47 20 64 22 173 18 104
-4 130 -9 198 -35 42 -17 79 -27 82 -23 2 4 18 44 34 89 l30 81 -22 14 c-46
30 -201 65 -307 70 -58 2 -118 2 -135 0z"/>
<path d="M4024 4334 c4 -15 47 -120 95 -233 48 -113 94 -222 101 -241 7 -19
48 -114 90 -210 43 -96 96 -218 118 -270 l41 -95 118 0 118 0 29 60 c70 144
436 988 436 1005 0 7 -41 10 -115 8 l-116 -3 -97 -230 c-207 -487 -245 -569
-255 -548 -4 10 -81 190 -171 398 l-162 380 -118 3 -118 3 6 -27z"/>
<path d="M331 3004 c0 -11 3 -14 6 -6 3 7 2 16 -1 19 -3 4 -6 -2 -5 -13z"/>
<path d="M333 2120 c3 -425 6 -508 21 -585 35 -178 79 -303 151 -434 86 -155
146 -233 270 -354 200 -194 434 -318 725 -385 l115 -26 875 -1 c481 -1 911 2
955 5 l80 6 -95 3 c-52 2 -98 3 -102 3 -3 -1 -11 5 -17 12 -9 11 -3 13 31 13
82 0 153 6 129 10 -19 4 -21 7 -10 14 8 5 -211 9 -541 9 -738 1 -1170 8 -1255
20 -197 29 -410 106 -575 209 -121 75 -288 230 -369 341 -22 30 -44 60 -48 65
-39 50 -123 204 -123 225 0 6 -11 35 -24 63 -40 87 -62 181 -95 407 -6 41 -13
199 -16 350 -5 262 -25 508 -37 465 -4 -15 -6 -13 -7 10 -1 23 -4 26 -11 15
-7 -12 -11 -10 -19 10 -8 18 -10 -123 -8 -470z m24 408 c-3 -7 -5 -2 -5 12 0
14 2 19 5 13 2 -7 2 -19 0 -25z m23 -31 c0 -16 -6 -23 -22 -24 -21 -2 -22 -1
-5 11 9 7 17 18 17 25 0 6 2 11 5 11 3 0 5 -10 5 -23z m-3 -69 c-3 -8 -6 -5
-6 6 -1 11 2 17 5 13 3 -3 4 -12 1 -19z m3056 -2035 c-7 -2 -19 -2 -25 0 -7 3
-2 5 12 5 14 0 19 -2 13 -5z"/>
<path d="M3508 403 c6 -2 18 -2 25 0 6 3 1 5 -13 5 -14 0 -19 -2 -12 -5z"/>
<path d="M7058 383 c7 -3 16 -2 19 1 4 3 -2 6 -13 5 -11 0 -14 -3 -6 -6z"/>
<path d="M7118 383 c6 -2 18 -2 25 0 6 3 1 5 -13 5 -14 0 -19 -2 -12 -5z"/>
<path d="M7228 343 c7 -3 16 -2 19 1 4 3 -2 6 -13 5 -11 0 -14 -3 -6 -6z"/>
</g>
</svg>
