
<svg width="512" height="512" viewBox="0 0 512 512" fill="none" xmlns="http://www.w3.org/2000/svg">
<defs>
<linearGradient id="logo_grad" x1="256" y1="40" x2="256" y2="472" gradientUnits="userSpaceOnUse">
<stop offset="0%" stop-color="#475569"/>
<stop offset="100%" stop-color="#0f172a"/>
</linearGradient>
<filter id="dropShadow" x="0" y="0" width="512" height="530" filterUnits="userSpaceOnUse">
<feDropShadow dx="0" dy="4" stdDeviation="6" flood-color="#0f172a" flood-opacity="0.2"/>
</filter>
</defs>

<g filter="url(#dropShadow)">
<!-- Telhado / Seta de Crescimento -->
<path d="M256 64L464 272H384L256 144L128 272H48L256 64Z" fill="url(#logo_grad)"/>

<!-- Estrutura do Banco (FIIs/Instituição) -->
<!-- Frontão -->
<path d="M176 296L256 248L336 296V312H176V296Z" fill="url(#logo_grad)"/>

<!-- Colunas -->
<rect x="184" y="328" width="32" height="104" rx="4" fill="url(#logo_grad)"/>
<rect x="240" y="328" width="32" height="104" rx="4" fill="url(#logo_grad)"/>
<rect x="296" y="328" width="32" height="104" rx="4" fill="url(#logo_grad)"/>

<!-- Base -->
<path d="M160 448H352C356.418 448 360 451.582 360 456V472H152V456C152 451.582 155.582 448 160 448Z" fill="url(#logo_grad)"/>
</g>
</svg>
